# xmcd CD database file
#
# Track frame offsets:
#	150
#	90119
#	134766
#	179452
#	196229
#	205036
#	235557
#	324784
#
# Disc length: 4411 seconds
#
# Revision: 0
# Processed by: cddbd v1.5.1PL0 Copyright (c) Steve Scherf et al.
# Submitted via: CDex 1.51
#
DISCID=5d113908
DTITLE=Ron Carter Quartet - 2001-09-20  Regatta Bar  Cambridge, MA  disc 1
DYEAR=2001
DGENRE=Jazz
TTITLE0=Seven Steps
TTITLE1=Mr. Bow Tie
TTITLE2=Lawra
TTITLE3=Seven Steps
TTITLE4=band intros
TTITLE5=Bass solo
TTITLE6=So What
TTITLE7=outro
EXTD=YEAR: 2001
EXTT0=
EXTT1=
EXTT2=
EXTT3=
EXTT4=
EXTT5=
EXTT6=
EXTT7=
PLAYORDER=
